<?xml version="1.0" standalone="no"?>
<!DOCTYPE svg PUBLIC "-//W3C//DTD SVG 20010904//EN"
 "http://www.w3.org/TR/2001/REC-SVG-20010904/DTD/svg10.dtd">
<svg version="1.0" xmlns="http://www.w3.org/2000/svg"
 width="2048.000000pt" height="1152.000000pt" viewBox="0 0 2048.000000 1152.000000"
 preserveAspectRatio="xMidYMid meet">

<g transform="translate(0.000000,1152.000000) scale(0.100000,-0.100000)"
fill="#000000" stroke="none">
<path d="M9995 10820 c-16 -4 -61 -8 -99 -9 -38 0 -96 -5 -130 -11 -33 -5
-117 -17 -186 -25 -202 -26 -372 -61 -575 -116 -38 -11 -88 -24 -110 -30 -22
-6 -49 -15 -60 -19 -11 -4 -54 -18 -95 -30 -105 -31 -311 -106 -387 -141 -35
-16 -65 -29 -67 -29 -7 0 -225 -103 -341 -162 -248 -125 -552 -320 -807 -518
-246 -190 -599 -535 -784 -765 -57 -71 -119 -148 -137 -170 -211 -257 -519
-791 -659 -1140 -22 -55 -46 -113 -54 -130 -7 -16 -24 -61 -38 -100 -13 -38
-36 -103 -51 -144 -14 -41 -30 -92 -35 -115 -5 -23 -13 -57 -19 -76 -22 -75
-54 -199 -73 -285 -11 -49 -24 -108 -29 -130 -17 -70 -40 -227 -46 -311 l-5
-82 44 -3 c25 -2 332 -3 682 -1 l637 3 -3 52 -3 52 -608 3 -609 2 7 63 c4 34
10 76 15 92 5 17 14 62 20 100 7 39 16 86 21 105 4 19 22 96 40 170 41 178
148 503 207 632 12 26 22 49 22 52 0 4 31 70 153 326 26 56 89 172 122 228 71
119 153 252 183 295 20 30 57 83 81 118 200 291 501 624 786 871 553 479 1103
791 1810 1026 151 50 357 103 560 142 33 6 69 14 80 16 11 3 49 10 85 15 285
46 409 54 800 54 428 0 574 -12 905 -74 28 -5 75 -14 105 -19 191 -35 463
-112 681 -192 197 -72 222 -82 318 -127 51 -23 95 -43 97 -43 8 0 259 -126
349 -175 194 -105 515 -321 700 -470 381 -306 708 -657 991 -1062 73 -105 265
-417 321 -523 50 -94 203 -422 203 -435 0 -5 15 -45 34 -90 121 -283 311
-1028 277 -1084 -5 -8 -189 -12 -607 -13 l-599 -3 -3 -52 c-2 -29 1 -53 5 -53
4 -1 305 -1 668 -2 579 0 661 1 669 15 11 17 -9 166 -54 402 -32 168 -124 508
-175 647 -15 40 -29 82 -32 93 -2 11 -9 29 -13 40 -5 11 -25 61 -43 110 -180
472 -526 1035 -906 1475 -109 126 -438 448 -562 551 -247 204 -346 276 -619
451 -169 108 -452 256 -646 339 -54 23 -123 52 -152 65 -29 13 -57 24 -62 24
-4 0 -42 13 -82 29 -65 26 -262 88 -403 126 -27 7 -95 26 -150 41 -55 15 -120
30 -145 35 -25 4 -110 19 -189 33 -145 26 -253 40 -436 58 -128 12 -751 19
-790 8z"/>
<path d="M10265 10463 c-27 -2 -129 -8 -225 -13 -96 -6 -206 -15 -245 -20 -38
-5 -108 -14 -155 -19 -136 -17 -209 -30 -310 -56 -26 -7 -66 -15 -165 -36 -33
-7 -152 -43 -265 -79 -604 -198 -1016 -415 -1531 -805 -317 -240 -781 -737
-1000 -1070 -141 -215 -170 -264 -277 -465 -19 -36 -42 -78 -52 -95 -10 -16
-28 -55 -40 -85 -12 -30 -35 -82 -52 -115 -16 -33 -43 -93 -59 -135 -16 -41
-34 -84 -38 -95 -18 -40 -104 -303 -132 -405 -50 -178 -82 -327 -73 -341 7
-12 41 -12 49 0 5 9 42 145 72 266 18 76 35 132 66 220 14 39 36 106 50 150
22 72 94 247 175 425 24 54 112 216 202 375 87 151 233 366 339 499 53 65 107
133 121 150 55 70 309 336 386 406 174 157 281 248 329 281 27 19 86 61 130
95 44 34 122 88 173 120 52 32 128 81 170 108 206 131 692 353 955 436 243 76
334 101 482 131 210 41 228 44 515 81 127 17 851 17 975 0 234 -31 274 -37
400 -62 28 -5 109 -20 180 -34 72 -13 162 -36 200 -50 39 -14 95 -32 125 -40
289 -78 776 -300 1100 -501 366 -228 657 -469 980 -810 85 -89 131 -145 283
-338 96 -122 290 -406 337 -496 20 -36 61 -113 92 -171 31 -58 77 -152 103
-210 25 -58 61 -136 79 -175 18 -38 41 -95 50 -125 10 -30 21 -64 26 -75 41
-98 114 -329 139 -440 53 -227 61 -246 99 -226 20 10 20 11 0 108 -30 151 -91
367 -133 473 -8 19 -28 80 -45 135 -18 55 -65 169 -106 253 -41 84 -74 156
-74 158 0 21 -214 401 -303 539 -134 206 -176 264 -253 351 -32 37 -65 77 -73
88 -16 23 -167 192 -216 241 -16 17 -53 55 -81 85 -51 55 -88 90 -245 232
-100 91 -403 318 -544 408 -55 35 -131 84 -170 109 -88 56 -478 250 -575 285
-39 14 -81 31 -92 37 -27 14 -162 63 -263 95 -44 14 -125 40 -180 58 -55 18
-127 39 -160 45 -110 23 -290 62 -345 76 -14 3 -65 10 -115 16 -49 5 -121 14
-160 19 -62 9 -198 18 -495 33 -47 2 -107 2 -135 0z"/>
<path d="M8099 6655 c-4 -3 -40 -10 -80 -15 -41 -6 -96 -14 -124 -19 -27 -5
-77 -14 -110 -19 -110 -19 -294 -81 -420 -142 -277 -134 -405 -280 -247 -280
40 0 182 43 382 116 41 15 93 31 115 36 22 5 56 13 75 17 19 5 60 14 90 21 30
7 73 16 95 21 92 22 169 31 315 37 203 10 509 -7 610 -33 14 -3 45 -11 70 -16
184 -41 280 -82 368 -156 61 -53 82 -95 82 -170 0 -157 -182 -306 -490 -401
-92 -28 -251 -71 -305 -81 -33 -7 -78 -16 -101 -21 -23 -5 -71 -12 -108 -16
l-68 -7 8 84 c3 46 11 94 15 107 5 13 9 76 9 140 -1 164 -28 220 -118 238 -80
16 -112 -79 -137 -400 -12 -142 -19 -194 -31 -207 -10 -11 -36 -19 -72 -22
-31 -3 -95 -10 -142 -16 -47 -5 -130 -15 -185 -21 -393 -46 -480 -63 -514
-103 -10 -13 -8 -18 13 -32 53 -35 262 -29 809 24 74 7 79 6 87 -13 4 -12 10
-109 13 -216 5 -147 11 -214 26 -273 26 -99 36 -117 66 -117 56 0 97 167 126
510 6 74 15 141 21 148 6 6 24 12 41 12 17 0 58 5 91 11 34 6 84 15 111 19
108 20 334 73 404 96 40 13 80 24 88 24 13 0 58 19 183 78 112 53 260 173 313
256 37 56 57 136 57 225 0 74 -4 94 -29 148 -46 96 -127 169 -269 241 -64 33
-139 66 -167 75 -106 32 -191 55 -225 62 -67 13 -156 27 -230 36 -89 12 -502
23 -511 14z"/>
<path d="M12351 6009 c-34 -13 -47 -35 -61 -99 -7 -30 -17 -61 -22 -67 -6 -7
-32 -13 -59 -13 -65 0 -106 -38 -81 -76 13 -19 50 -34 85 -34 57 0 59 -7 46
-201 -13 -191 -7 -406 12 -484 43 -176 145 -213 277 -100 23 21 54 59 68 86
13 27 30 49 37 49 7 0 19 -23 26 -51 42 -163 155 -195 276 -78 28 27 65 78 84
114 19 36 37 65 41 65 3 0 22 -16 41 -36 58 -60 93 -77 173 -80 106 -5 140 8
211 80 79 79 105 144 105 259 0 104 -29 191 -83 254 -57 64 -101 83 -190 83
-63 0 -79 -4 -118 -28 -74 -47 -112 -109 -174 -285 -30 -86 -127 -278 -150
-297 -8 -6 -18 -9 -24 -6 -18 11 -22 150 -12 356 16 310 16 310 103 310 52 0
88 24 88 59 0 25 -12 33 -85 51 l-60 16 -5 55 c-3 31 -11 63 -18 71 -37 45
-129 44 -164 -2 -10 -14 -21 -49 -25 -78 -7 -64 -20 -76 -73 -68 -22 3 -58 9
-80 12 l-40 6 0 50 c0 62 -13 86 -55 104 -39 16 -60 17 -94 3z m313 -297 c14
-8 -1 -270 -19 -332 -29 -97 -142 -313 -168 -318 -17 -3 -25 22 -33 105 -7 75
23 518 37 544 10 19 16 20 92 14 45 -4 86 -10 91 -13z m701 -152 c8 0 24 -26
36 -57 29 -74 33 -265 7 -325 -32 -72 -96 -54 -132 38 -49 126 -5 373 62 349
8 -3 20 -5 27 -5z"/>
<path d="M11358 5971 c-87 -18 -157 -96 -142 -159 15 -62 70 -92 169 -92 106
0 215 68 215 133 0 38 -23 80 -56 102 -31 20 -128 28 -186 16z"/>
<path d="M10350 5703 c-19 -3 -50 -16 -69 -30 -46 -35 -115 -146 -135 -218
-48 -167 -59 -198 -100 -285 -36 -73 -52 -94 -69 -87 -29 11 -32 202 -6 358
12 73 1 104 -47 124 -44 18 -104 20 -126 3 -9 -7 -28 -53 -43 -103 -35 -122
-114 -345 -131 -372 -8 -13 -21 -23 -30 -23 -12 0 -14 16 -8 108 3 59 8 114
11 122 3 8 9 56 13 105 5 50 11 113 15 142 11 74 2 100 -38 111 -66 18 -133
-2 -161 -49 -19 -32 -38 -250 -40 -464 -1 -109 1 -124 24 -170 19 -38 35 -55
72 -73 69 -36 115 -25 168 38 23 27 51 75 64 107 27 66 41 76 49 36 8 -39 61
-110 100 -133 45 -28 115 -26 157 3 18 12 47 43 64 69 17 26 36 47 41 47 6 0
24 -20 40 -44 38 -58 86 -90 155 -105 101 -21 223 30 308 130 24 27 48 50 55
50 7 0 20 -18 31 -39 51 -107 156 -164 265 -144 90 17 144 48 216 124 67 72
85 82 85 50 0 -11 5 -23 10 -26 6 -3 10 -14 10 -22 0 -24 40 -79 71 -97 15 -9
46 -16 68 -16 76 0 133 44 184 140 11 19 22 38 26 42 4 4 34 -17 68 -46 59
-51 65 -54 132 -61 131 -13 213 27 286 139 95 145 60 393 -69 489 -51 37 -83
47 -159 47 -68 0 -75 -2 -121 -38 -65 -49 -110 -117 -137 -205 -60 -196 -120
-341 -146 -351 -34 -13 -43 12 -43 123 0 58 5 135 10 171 24 154 24 164 -2
194 -21 25 -32 28 -82 30 -53 1 -60 -1 -82 -29 -20 -25 -24 -41 -24 -97 0 -86
-30 -160 -114 -286 -50 -75 -119 -137 -164 -149 -37 -9 -74 8 -99 46 -19 28
-23 47 -23 110 0 42 7 108 16 146 8 39 19 86 23 105 11 49 35 103 53 118 33
27 37 -6 21 -146 -8 -73 -12 -139 -9 -147 7 -18 62 -19 92 -2 12 7 33 26 48
43 24 29 26 39 26 122 0 78 -4 99 -29 155 -38 86 -72 107 -169 107 l-71 0 -48
-49 c-45 -46 -78 -104 -118 -211 -35 -95 -106 -231 -149 -287 -45 -60 -123
-113 -164 -113 -11 0 -34 11 -50 25 -38 32 -59 121 -43 181 6 21 11 54 11 73
0 32 6 62 33 156 14 50 39 97 55 103 22 7 26 -31 13 -160 -14 -145 -11 -158
43 -158 75 0 108 57 107 189 0 52 -5 99 -11 105 -5 5 -10 19 -10 29 0 29 -32
76 -65 97 -34 21 -84 29 -135 23z m1606 -154 c25 -20 39 -106 39 -231 0 -113
-2 -130 -21 -155 -66 -89 -140 19 -138 202 1 139 32 213 84 200 13 -4 30 -11
36 -16z"/>
<path d="M5214 5041 c-7 -8 -4 -93 6 -150 25 -147 84 -448 90 -466 4 -11 13
-45 20 -75 25 -113 128 -421 207 -620 67 -170 248 -532 361 -720 141 -237 298
-461 451 -644 301 -359 705 -724 1083 -979 257 -173 359 -232 633 -366 352
-172 637 -277 1015 -374 134 -34 178 -43 485 -97 174 -30 360 -40 774 -40 411
0 629 11 776 39 28 6 79 15 115 21 36 6 81 15 100 20 19 5 62 14 95 21 64 13
190 44 316 78 194 52 501 165 747 275 331 148 710 374 976 581 109 85 230 184
301 247 110 97 435 427 504 511 31 38 93 115 138 171 69 83 353 498 402 585 7
14 25 45 38 70 14 25 29 51 33 56 13 17 124 237 154 305 16 36 41 92 57 125
89 196 272 770 309 970 23 123 40 219 51 288 7 42 17 77 21 77 4 0 8 20 8 44
0 37 -3 45 -22 49 -17 4 -804 2 -1341 -3 -4 0 -7 -24 -5 -52 l3 -53 603 -3
c525 -2 603 -4 608 -17 7 -17 -20 -192 -41 -270 -7 -27 -28 -113 -45 -190 -29
-125 -117 -418 -140 -470 -6 -11 -28 -72 -51 -135 -22 -63 -47 -128 -54 -145
-7 -16 -25 -59 -40 -95 -62 -147 -244 -486 -364 -675 -83 -130 -261 -372 -350
-475 -31 -36 -74 -87 -96 -115 -21 -27 -113 -126 -204 -218 -349 -354 -737
-648 -1186 -896 -219 -122 -372 -190 -700 -313 -44 -16 -89 -34 -100 -39 -11
-4 -60 -20 -110 -35 -583 -170 -920 -219 -1500 -219 -521 0 -791 33 -1268 155
-253 65 -308 83 -652 215 -275 106 -697 335 -974 530 -118 83 -354 270 -476
378 -306 270 -696 730 -904 1067 -134 217 -309 552 -377 722 -25 62 -51 127
-58 143 -8 17 -17 41 -21 55 -3 14 -10 34 -16 45 -33 71 -140 434 -176 595 -8
36 -19 85 -24 110 -12 55 -42 208 -51 265 -3 20 4 20 607 25 l610 5 3 53 c2
28 -1 52 -5 52 -77 3 -1346 4 -1349 1z"/>
<path d="M5646 4691 c-3 -5 -2 -28 3 -52 23 -113 42 -192 50 -207 4 -9 12 -35
15 -57 8 -42 41 -156 56 -190 5 -11 19 -49 30 -85 12 -36 26 -74 30 -85 56
-143 90 -225 125 -301 24 -50 45 -99 49 -110 7 -23 98 -196 181 -344 91 -164
265 -419 414 -605 203 -255 564 -610 801 -788 216 -162 262 -195 325 -232 36
-22 97 -60 133 -84 208 -137 746 -381 1037 -470 39 -11 99 -30 135 -42 36 -11
85 -24 110 -29 25 -5 63 -13 85 -18 47 -12 231 -51 295 -63 43 -9 133 -21 290
-39 266 -32 573 -40 830 -21 192 14 417 40 520 60 25 5 70 14 100 20 30 6 98
20 150 32 52 11 106 23 120 26 140 27 666 215 850 304 170 82 455 243 630 355
162 104 490 372 692 565 112 106 282 296 382 424 55 72 108 139 118 150 40 47
258 377 300 455 25 47 62 114 83 150 33 59 84 163 137 280 11 25 36 79 55 120
19 41 43 100 53 130 10 30 34 100 53 155 53 153 92 287 128 435 40 171 40 165
5 165 -27 0 -30 -4 -47 -65 -10 -36 -26 -101 -35 -145 -9 -44 -30 -120 -46
-170 -15 -49 -33 -106 -39 -125 -14 -46 -68 -190 -80 -212 -5 -10 -9 -23 -9
-29 0 -11 -41 -107 -93 -219 -11 -25 -34 -76 -52 -115 -17 -38 -42 -90 -55
-115 -74 -142 -89 -170 -119 -225 -63 -115 -280 -431 -391 -570 -214 -267
-563 -611 -806 -796 -175 -133 -198 -150 -280 -204 -105 -68 -350 -212 -439
-257 -38 -20 -110 -56 -160 -81 -190 -97 -627 -251 -865 -306 -204 -48 -422
-91 -515 -101 -55 -6 -129 -15 -165 -20 -110 -16 -544 -22 -755 -10 -295 16
-458 34 -575 65 -30 8 -115 26 -188 39 -72 14 -189 43 -260 64 -70 22 -136 42
-147 45 -118 32 -451 163 -575 226 -283 145 -356 183 -424 227 -432 276 -705
497 -992 800 -133 141 -280 313 -370 434 -66 87 -294 441 -294 456 0 3 -25 49
-56 102 -79 137 -158 303 -239 502 -72 179 -194 563 -230 728 -8 34 -17 67
-20 72 -8 12 -42 13 -49 1z"/>
</g>
</svg>
